<svg width="67" height="88" viewBox="0 0 67 88" fill="none" xmlns="http://www.w3.org/2000/svg">
<path d="M63.8568 50.0824C65.3122 52.236 65.8767 54.8699 65.4315 57.4308C64.9864 59.9918 63.5664 62.2806 61.4696 63.8169C59.3728 65.3531 56.7623 66.0172 54.1863 65.6697C51.6103 65.3222 49.2691 63.9902 47.6543 61.9533C47.3453 61.5983 47.0364 61.2368 46.734 60.8687C42.122 55.2975 38.5386 48.9497 36.1515 42.1224C35.1681 39.3093 33.5646 36.7534 31.4597 34.6439C29.3548 32.5344 26.8023 30.9254 23.9913 29.936C17.1718 27.5558 10.829 23.9838 5.25819 19.3863C4.89667 19.0839 4.52858 18.775 4.18021 18.4661C2.18017 16.839 0.881451 14.5058 0.552324 11.9486C0.223196 9.39141 0.888802 6.80547 2.41165 4.72494C3.9345 2.64442 6.19826 1.22825 8.73533 0.76896C11.2724 0.309673 13.889 0.842352 16.0445 2.25697C17.9956 3.59758 19.7462 5.20876 21.2438 7.04214L22.0786 8.06096C25.3651 12.1034 27.5999 17.0397 31.3597 20.6615L32.109 21.3779C32.8229 22.0674 33.7044 22.5585 34.6663 22.8026C35.6282 23.0468 36.6372 23.0355 37.5934 22.7699C38.5497 22.5042 39.4199 21.9935 40.1181 21.2882C40.8163 20.5829 41.3183 19.7076 41.5742 18.7487L41.7911 17.9337C42.7245 14.5288 42.7245 10.8611 44.072 7.59427L44.302 7.04214C45.01 5.31294 46.1344 3.78552 47.5752 2.59573C49.016 1.40594 50.7284 0.590658 52.5603 0.222394C54.3922 -0.14587 56.2867 -0.0556991 58.0753 0.484886C59.864 1.02547 61.4913 1.99971 62.8125 3.32097C64.1338 4.64222 65.108 6.26952 65.6486 8.05815C66.1892 9.84677 66.2794 11.7413 65.9111 13.5732C65.5428 15.405 64.7275 17.1175 63.5378 18.5583C62.348 19.9991 60.8205 21.1234 59.0913 21.8315L58.5326 22.0615C55.2461 23.3761 51.6047 23.4287 48.1998 24.3424L47.3913 24.5593C46.4337 24.8169 45.5598 25.3197 44.8557 26.0181C44.1516 26.7164 43.6418 27.5863 43.3763 28.5418C43.1109 29.4973 43.0991 30.5054 43.3422 31.4669C43.5852 32.4283 44.0746 33.3098 44.7621 34.0244L45.4786 34.7803C49.0938 38.5336 54.0301 40.7552 58.066 44.0418L59.0913 44.8962C60.9241 46.3875 62.5334 48.134 63.8699 50.0824" fill="url(#paint0_linear_58_1378)"/>
<path d="M13.3827 37.9617C15.3305 35.9854 17.9828 34.8625 20.7576 34.8395C22.1314 34.8333 23.4932 35.0945 24.7672 35.6085C26.3651 36.2525 27.7787 37.2821 28.882 38.6053C29.9853 39.9285 30.7439 41.5042 31.0902 43.1919C31.4364 44.8796 31.3596 46.6267 30.8664 48.2774C30.3733 49.9282 29.4792 51.4312 28.264 52.6524L28.1851 52.7378L17.9378 62.7486C16.0009 64.6543 13.3894 65.7175 10.6721 65.7065C7.95488 65.6955 5.35206 64.6112 3.43066 62.6898C1.50927 60.7684 0.424965 58.1656 0.413964 55.4484C0.402962 52.7311 1.46615 50.1196 3.37193 48.1827L13.3827 37.9617Z" fill="url(#paint1_linear_58_1378)"/>
<path d="M4.9232 79.9374L0.460112 72.7004H4.22646L6.69135 76.9072L7.25663 78.3598L7.80219 76.9072L10.3722 72.7202H13.7574L9.15624 79.8059L13.9874 87.424H10.2671L7.44725 82.9412L6.78995 81.4294L6.17865 82.9412L3.38511 87.424H0L4.9232 79.9374Z" fill="#333333"/>
<path d="M42.1397 87.424H31.9975V72.7004H35.1131V84.6897H42.1397V87.424ZM43.6449 77.1372C44.3903 76.8355 45.166 76.6152 45.9586 76.4799C46.9004 76.2944 47.8581 76.202 48.8179 76.2039C49.4861 76.1827 50.1531 76.276 50.7898 76.4799C51.2736 76.6284 51.7091 76.9029 52.0518 77.2753C52.3723 77.6273 52.5984 78.0546 52.7091 78.5176C52.8541 79.0374 52.9249 79.5752 52.9195 80.1148C52.9195 80.8313 52.9195 81.5412 52.834 82.2379C52.7486 82.9347 52.7486 83.684 52.7486 84.4727C52.7498 84.9916 52.7849 85.5097 52.8537 86.024C52.9218 86.5178 53.0363 87.0042 53.1955 87.4766H50.7569L50.2705 85.8399H50.0208C49.6368 86.3279 49.1695 86.7441 48.6404 87.0691C47.9804 87.4428 47.2292 87.6249 46.4713 87.5949C45.9706 87.6003 45.4727 87.5203 44.999 87.3583C44.5837 87.2297 44.2013 87.0127 43.8779 86.7222C43.5545 86.4318 43.2979 86.0747 43.1256 85.6756C42.9531 85.2592 42.8681 84.8117 42.8759 84.361C42.8401 83.8256 42.9344 83.2896 43.1508 82.7985C43.3671 82.3075 43.699 81.8761 44.1182 81.5412C44.9595 80.897 46.2281 80.5749 47.924 80.5749C48.3185 80.5741 48.7124 80.6093 49.1005 80.6801L49.9222 80.805C49.9585 80.5546 49.9783 80.3021 49.9813 80.0491C49.9997 79.8364 49.9742 79.6222 49.9063 79.4198C49.8385 79.2174 49.7298 79.0311 49.5869 78.8725C49.1487 78.5712 48.6173 78.436 48.0883 78.4913C47.4226 78.4907 46.7597 78.5768 46.1164 78.7476C45.536 78.8814 44.9719 79.0776 44.4337 79.3326L43.6449 77.1372ZM47.4967 85.2352C48.0595 85.2652 48.6158 85.103 49.0742 84.7751C49.4309 84.5168 49.7307 84.1879 49.955 83.8089V82.5468C49.8469 82.5056 49.7345 82.4769 49.6198 82.4614C49.4752 82.4614 49.3174 82.4022 49.1334 82.3759L48.6076 82.3102H48.1474C47.5558 82.2641 46.9651 82.4118 46.4647 82.7309C46.2965 82.8406 46.1585 82.9908 46.0632 83.1676C45.9679 83.3444 45.9184 83.5423 45.9192 83.7431C45.9033 83.9518 45.9326 84.1614 46.0052 84.3577C46.0778 84.554 46.192 84.7322 46.3399 84.8803C46.6707 85.133 47.0811 85.259 47.4967 85.2352ZM55.9299 72.7004H58.8746V77.3016H59.1573C59.5184 76.9067 59.9693 76.6046 60.4719 76.4208C61.026 76.191 61.6205 76.0748 62.2203 76.079C62.8407 76.0388 63.4619 76.1459 64.033 76.3915C64.6042 76.6371 65.1092 77.0142 65.5068 77.4922C66.2627 78.419 66.6374 79.773 66.6374 81.574C66.653 82.4533 66.5105 83.3283 66.2167 84.1572C65.9745 84.8855 65.5673 85.548 65.0268 86.093C64.4864 86.638 63.8273 87.0508 63.1011 87.2991C62.3089 87.5748 61.4749 87.7104 60.6362 87.7001C59.6931 87.7096 58.7512 87.6304 57.823 87.4635C57.1688 87.3677 56.5259 87.207 55.9036 86.9836L55.9299 72.7004ZM58.8746 84.9197C59.1544 85.0569 59.4538 85.15 59.762 85.1958C60.0841 85.1958 60.4193 85.2352 60.794 85.2352C62.6169 85.2352 63.5283 84.0433 63.5283 81.6595C63.5825 80.8538 63.3825 80.0515 62.9565 79.3655C62.7661 79.1015 62.5119 78.8901 62.2176 78.7511C61.9233 78.612 61.5986 78.5497 61.2738 78.5702C60.7286 78.5433 60.1899 78.6982 59.7423 79.0106C59.3292 79.3531 59.0272 79.8107 58.8746 80.3252V84.9197Z" fill="#333333"/>
<path d="M22.7429 82.8226C24.1949 82.8226 25.3721 81.6455 25.3721 80.1934C25.3721 78.7413 24.1949 77.5642 22.7429 77.5642C21.2908 77.5642 20.1136 78.7413 20.1136 80.1934C20.1136 81.6455 21.2908 82.8226 22.7429 82.8226Z" fill="#333333"/>
<defs>
<linearGradient id="paint0_linear_58_1378" x1="0.394142" y1="32.8676" x2="66.1245" y2="32.8676" gradientUnits="userSpaceOnUse">
<stop stop-color="#0071EF"/>
<stop offset="1" stop-color="#149BFF"/>
</linearGradient>
<linearGradient id="paint1_linear_58_1378" x1="0.466647" y1="50.2532" x2="31.2745" y2="50.2532" gradientUnits="userSpaceOnUse">
<stop stop-color="#43C5AC"/>
<stop offset="1" stop-color="#8AD4C2"/>
</linearGradient>
</defs>
</svg>
